HIERARCHY
ROOT root
{
	OFFSET 0.000000 0.000000 0.000000
	CHANNELS 6 Xposition Yposition Zposition Zrotation Yrotation Xrotation
	JOINT lhip
	{
		OFFSET 0.058581 -0.082280 -0.017664
		CHANNELS 3 Zrotation Yrotation Xrotation
		JOINT lknee
		{
			OFFSET 0.043451 -0.386469 0.008037
			CHANNELS 3 Zrotation Yrotation Xrotation
			JOINT lankle
			{
				OFFSET -0.014790 -0.426874 -0.037428
				CHANNELS 3 Zrotation Yrotation Xrotation
				JOINT ltoe
				{
					OFFSET 0.041054 -0.060286 0.122042
					CHANNELS 3 Zrotation Yrotation Xrotation
					End Site
					{
						OFFSET 0.000000 0.000000 0.000000
					}
				}
			}
		}
	}
	JOINT rhip
	{
		OFFSET -0.060310 -0.090513 -0.013543
		CHANNELS 3 Zrotation Yrotation Xrotation
		JOINT rknee
		{
			OFFSET -0.043257 -0.383688 -0.004843
			CHANNELS 3 Zrotation Yrotation Xrotation
			JOINT rankle
			{
				OFFSET 0.019056 -0.420046 -0.034562
				CHANNELS 3 Zrotation Yrotation Xrotation
				JOINT rtoe
				{
					OFFSET -0.034840 -0.062106 0.130323
					CHANNELS 3 Zrotation Yrotation Xrotation
					End Site
					{
						OFFSET 0.000000 0.000000 0.000000
					}
				}
			}
		}
	}
	JOINT lowerback
	{
		OFFSET 0.004439 0.124404 -0.038385
		CHANNELS 3 Zrotation Yrotation Xrotation
		JOINT upperback
		{
			OFFSET 0.004488 0.137956 0.026820
			CHANNELS 3 Zrotation Yrotation Xrotation
			JOINT chest
			{
				OFFSET -0.002265 0.056032 0.002855
				CHANNELS 3 Zrotation Yrotation Xrotation
				JOINT lowerneck
				{
					OFFSET -0.013390 0.211636 -0.033468
					CHANNELS 3 Zrotation Yrotation Xrotation
					JOINT upperneck
					{
						OFFSET 0.010113 0.088937 0.050410
						CHANNELS 3 Zrotation Yrotation Xrotation
						End Site
						{
							OFFSET 0.000000 0.000000 0.000000
						}
					}
				}
				JOINT lclavicle
				{
					OFFSET 0.071702 0.114000 -0.018898
					CHANNELS 3 Zrotation Yrotation Xrotation
					JOINT lshoulder
					{
						OFFSET 0.122921 0.045205 -0.019046
						CHANNELS 3 Zrotation Yrotation Xrotation
						JOINT lelbow
						{
							OFFSET 0.255332 -0.015649 -0.022946
							CHANNELS 3 Zrotation Yrotation Xrotation
							JOINT lwrist
							{
								OFFSET 0.265709 0.012698 -0.007375
								CHANNELS 3 Zrotation Yrotation Xrotation
								End Site
								{
									OFFSET 0.000000 0.000000 0.000000
								}
							}
						}
					}
				}
				JOINT rclavicle
				{
					OFFSET -0.082954 0.112472 -0.023707
					CHANNELS 3 Zrotation Yrotation Xrotation
					JOINT rshoulder
					{
						OFFSET -0.113228 0.046853 -0.008472
						CHANNELS 3 Zrotation Yrotation Xrotation
						JOINT relbow
						{
							OFFSET -0.260127 -0.014369 -0.031269
							CHANNELS 3 Zrotation Yrotation Xrotation
							JOINT rwrist
							{
								OFFSET -0.269108 0.006794 -0.006027
								CHANNELS 3 Zrotation Yrotation Xrotation
								End Site
								{
									OFFSET 0.000000 0.000000 0.000000
								}
							}
						}
					}
				}
			}
		}
	}
}
MOTION
Frames: 10
Frame Time: 0.033333
-1.611310 1.843730 0.948663 39.640300 0.349124 85.658199 3.309930 4.683126 -28.634488 -2.141493 14.436573 44.524074 4.540833 14.605861 -19.742010 0.000000 -0.000000 0.000000 0.637963 4.563175 -29.093773 -3.331946 -0.091125 53.421267 -0.523882 -12.787640 -22.576395 0.000000 -0.000000 0.000000 -1.934771 -2.333354 58.791915 -0.835793 -10.733204 5.653138 3.375208 -5.463391 1.891058 -14.334443 9.537425 -2.105740 6.239404 20.078009 -18.806652 -5.983578 -31.632271 -6.395938 -21.673552 -23.044357 -6.206593 55.756810 -69.747821 -65.828872 30.181852 2.882669 -22.621389 6.188779 19.175278 -4.554059 62.289207 -7.606827 22.475311 -171.744387 69.408031 -145.926520 -12.306064 12.716444 10.954613 
-1.612021 1.843226 0.948336 39.629970 0.360345 85.656231 3.433736 4.734416 -28.666639 -1.942357 14.697280 44.671485 4.758422 14.244525 -19.731812 0.000000 -0.000000 0.000000 0.527009 4.721858 -29.136983 -3.376205 -0.482910 53.512681 -0.610848 -12.647321 -22.597481 0.000000 -0.000000 0.000000 -2.019391 -2.304005 58.748843 -0.803189 -10.696724 5.778036 3.287466 -5.376389 1.908095 -14.151938 9.647251 -2.400785 6.197121 19.884967 -18.548487 -5.739357 -31.620699 -6.621869 -21.645359 -23.229317 -6.025179 55.858185 -69.475247 -65.879465 31.848211 3.177655 -22.028379 6.216375 19.218757 -4.700040 62.221903 -7.657044 22.616711 -171.196977 69.444795 -144.903585 -12.799893 12.559962 10.401481 
-1.612722 1.842745 0.948100 39.649720 0.360959 85.574607 3.539365 4.743120 -28.627381 -1.990489 14.718810 44.761246 4.714509 14.205166 -19.780798 0.000000 -0.000000 0.000000 0.544576 4.686937 -29.110639 -3.360167 -0.585147 53.617371 -0.632437 -12.607395 -22.660081 0.000000 -0.000000 0.000000 -2.052291 -2.183580 58.814376 -0.748061 -10.695813 5.998179 3.322230 -5.362086 1.756565 -14.072686 9.778489 -2.553952 6.174608 19.694690 -18.402707 -5.596561 -31.649298 -6.739409 -21.684666 -23.259778 -5.945730 55.800859 -69.417027 -65.738686 31.695779 3.237620 -22.210209 6.245444 19.249089 -4.765687 62.141793 -7.612562 22.632927 -170.774678 69.487750 -144.448423 -12.763643 12.492529 10.332321 
-1.613740 1.842102 0.947768 39.677999 0.387165 85.542391 3.684151 4.797689 -28.681010 -2.058758 14.691273 44.915819 4.700172 14.178234 -19.850346 0.000000 -0.000000 0.000000 0.610386 4.710299 -29.151717 -3.328529 -0.700890 53.746864 -0.684836 -12.632462 -22.726362 0.000000 -0.000000 0.000000 -2.163217 -2.079591 58.924837 -0.683180 -10.617384 5.860997 3.368197 -5.306706 1.783166 -13.985368 9.878759 -2.624503 6.216966 19.509248 -18.159684 -5.505912 -31.650886 -6.791564 -21.707146 -23.278396 -5.883614 55.292126 -69.448917 -65.337676 31.649888 3.193253 -22.328374 6.295513 19.283622 -4.792179 62.114237 -7.571575 22.628269 -170.380506 69.611362 -144.107070 -12.737251 12.522407 10.310523 
-1.613984 1.841643 0.947649 39.677671 0.371594 85.484579 3.730178 4.853953 -28.635838 -2.105704 14.687916 44.979046 4.652212 14.146351 -19.878602 0.000000 -0.000000 0.000000 0.637096 4.693411 -29.100567 -3.341290 -0.709380 53.802709 -0.696842 -12.614142 -22.770228 0.000000 -0.000000 0.000000 -2.205412 -2.088815 59.018113 -0.721698 -10.594966 5.702651 3.345628 -5.253486 1.816696 -13.974680 9.880421 -2.530134 6.282496 19.503419 -18.092564 -5.526178 -31.646627 -6.755608 -21.674413 -23.218332 -5.859337 55.069658 -69.500249 -65.254563 31.830168 3.147309 -22.252832 6.323084 19.326365 -4.749106 62.108909 -7.570622 22.564932 -170.305051 69.706195 -144.094951 -12.687029 12.542110 10.354039 
-1.614054 1.841116 0.947685 39.687830 0.339049 85.390385 3.770947 4.880965 -28.512633 -2.147105 14.732642 45.003914 4.574281 14.094447 -19.908894 0.000000 -0.000000 0.000000 0.649103 4.659019 -28.982684 -3.384995 -0.720944 53.838610 -0.682256 -12.533843 -22.811691 0.000000 -0.000000 0.000000 -2.197621 -2.058942 59.076412 -0.756593 -10.594817 5.716515 3.322491 -5.221643 1.741766 -13.897037 9.906226 -2.456717 6.341717 19.409117 -17.998118 -5.592013 -31.633170 -6.692864 -21.591140 -23.138039 -5.821581 54.839894 -69.626353 -65.180561 31.874885 3.084594 -22.250439 6.392071 19.322962 -4.712562 62.009944 -7.582553 22.513662 -170.245127 69.799168 -144.088158 -12.662606 12.558150 10.416133 
-1.614208 1.840706 0.947857 39.756499 0.344665 85.382281 3.764939 4.952429 -28.493385 -2.117508 14.675654 45.031024 4.571336 13.982453 -19.944255 0.000000 -0.000000 0.000000 0.692106 4.655309 -28.924351 -3.429106 -0.743764 53.805054 -0.665296 -12.491813 -22.783426 0.000000 -0.000000 0.000000 -2.180462 -2.012909 59.023999 -0.726590 -10.633563 5.823157 3.358592 -5.203531 1.599775 -13.810021 9.933768 -2.389497 6.374465 19.294245 -17.943821 -5.676283 -31.587354 -6.693274 -21.752339 -23.077566 -5.775558 54.579276 -69.774489 -64.614513 31.381750 3.160362 -22.578953 6.499425 19.289262 -4.607575 61.882005 -7.579972 22.446561 -170.272344 69.872503 -144.026295 -12.789827 12.574187 10.299900 
-1.614219 1.840487 0.948059 39.804257 0.301239 85.308615 3.688833 5.006343 -28.345165 -2.063884 14.614631 44.931224 4.587685 13.890302 -19.938134 0.000000 -0.000000 0.000000 0.699400 4.602025 -28.804669 -3.474598 -0.711332 53.738152 -0.639846 -12.406335 -22.746712 0.000000 -0.000000 0.000000 -2.186983 -1.938159 59.065206 -0.694144 -10.694651 5.880884 3.408468 -5.216271 1.544439 -13.716506 9.945832 -2.484006 6.361035 19.169575 -17.859449 -5.648525 -31.456904 -6.838056 -22.043116 -23.145641 -5.692752 53.991778 -69.869790 -63.913794 31.261299 3.079532 -22.583167 6.473662 19.193827 -4.635783 61.906609 -7.559855 22.439319 -170.362384 69.978600 -144.111587 -12.839165 12.613111 10.328657 
-1.614244 1.840164 0.948402 39.817504 0.262193 85.217469 3.642041 5.042325 -28.163004 -2.084577 14.538054 44.773547 4.577366 13.886582 -19.869791 0.000000 -0.000000 0.000000 0.718593 4.532144 -28.647269 -3.481040 -0.648539 53.641146 -0.624453 -12.372608 -22.723611 0.000000 -0.000000 0.000000 -2.210571 -1.890297 59.140825 -0.689120 -10.723926 5.853195 3.394580 -5.194130 1.620592 -13.598731 9.970265 -2.681246 6.372766 18.991055 -17.777146 -5.471891 -31.311128 -6.951730 -22.150791 -23.250677 -5.564645 53.605988 -69.969407 -63.723975 31.552162 2.975950 -22.424338 6.384353 19.061763 -4.771835 61.989991 -7.579426 22.477146 -170.416415 70.045343 -144.227972 -13.002605 12.666207 10.434456 
-1.614409 1.839789 0.948882 39.818344 0.259241 85.116302 3.633676 5.060667 -27.995112 -2.116903 14.426805 44.656512 4.551499 13.931172 -19.798927 0.000000 -0.000000 0.000000 0.763486 4.484984 -28.462661 -3.430243 -0.598472 53.524037 -0.608152 -12.410747 -22.706865 0.000000 -0.000000 0.000000 -2.259833 -1.873922 59.216836 -0.698156 -10.722394 5.808459 3.377732 -5.153349 1.649311 -13.499090 9.935508 -2.733575 6.441133 18.841496 -17.601035 -5.404789 -31.245177 -6.917975 -22.047162 -23.215431 -5.457187 53.359595 -70.111593 -63.685288 31.585368 2.943260 -22.437757 6.376123 19.014506 -4.802513 61.971976 -7.613264 22.458577 -170.284179 70.097099 -144.168995 -12.906998 12.672190 10.595040 
